<svg width="1058" height="756" xmlns="http://www.w3.org/2000/svg" xmlns:xlink="http://www.w3.org/1999/xlink" overflow="hidden"><defs><clipPath id="clip0"><rect x="0" y="0" width="1058" height="756"/></clipPath></defs><g clip-path="url(#clip0)"><rect x="0" y="0" width="1058" height="756.405" fill="#FFFFFF"/><path d="M11.2968 9.76499 50.615 9.76499 50.615 49.1812 11.2968 49.1812Z" fill="#E7E7E7" fill-rule="evenodd"/><path d="M50.615 9.76499 245.457 9.76499 245.457 49.1812 50.615 49.1812Z" fill="#E7E7E7" fill-rule="evenodd"/><path d="M245.457 9.76499 1053.04 9.76499 1053.04 49.1812 245.457 49.1812Z" fill="#E7E7E7" fill-rule="evenodd"/><path d="M11.2968 49.1812 50.615 49.1812 50.615 88.5975 11.2968 88.5975Z" fill="#E7E7E7" fill-rule="evenodd"/><path d="M50.615 49.1812 245.457 49.1812 245.457 88.5975 50.615 88.5975Z" fill="#E7E7E7" fill-rule="evenodd"/><path d="M245.457 49.1812 1053.04 49.1812 1053.04 88.5975 245.457 88.5975Z" fill="#E7E7E7" fill-rule="evenodd"/><path d="M11.2968 88.5975 50.615 88.5975 50.615 128.014 11.2968 128.014Z" fill="#E7E7E7" fill-rule="evenodd"/><path d="M50.615 88.5975 245.457 88.5975 245.457 128.014 50.615 128.014Z" fill="#E7E7E7" fill-rule="evenodd"/><path d="M245.457 88.5975 1053.04 88.5975 1053.04 128.014 245.457 128.014Z" fill="#E7E7E7" fill-rule="evenodd"/><path d="M11.2968 128.014 50.615 128.014 50.615 167.43 11.2968 167.43Z" fill="#E7E7E7" fill-rule="evenodd"/><path d="M50.615 128.014 245.457 128.014 245.457 167.43 50.615 167.43Z" fill="#E7E7E7" fill-rule="evenodd"/><path d="M245.457 128.014 1053.04 128.014 1053.04 167.43 245.457 167.43Z" fill="#E7E7E7" fill-rule="evenodd"/><path d="M11.2968 167.43 50.615 167.43 50.615 206.846 11.2968 206.846Z" fill="#E7E7E7" fill-rule="evenodd"/><path d="M50.615 167.43 245.457 167.43 245.457 206.846 50.615 206.846Z" fill="#E7E7E7" fill-rule="evenodd"/><path d="M245.457 167.43 1053.04 167.43 1053.04 206.846 245.457 206.846Z" fill="#E7E7E7" fill-rule="evenodd"/><path d="M11.2968 206.846 50.615 206.846 50.615 246.262 11.2968 246.262Z" fill="#E7E7E7" fill-rule="evenodd"/><path d="M50.615 206.846 245.457 206.846 245.457 246.262 50.615 246.262Z" fill="#E7E7E7" fill-rule="evenodd"/><path d="M245.457 206.846 1053.04 206.846 1053.04 246.262 245.457 246.262Z" fill="#E7E7E7" fill-rule="evenodd"/><path d="M11.2968 246.262 50.615 246.262 50.615 285.679 11.2968 285.679Z" fill="#E7E7E7" fill-rule="evenodd"/><path d="M50.615 246.262 245.457 246.262 245.457 285.679 50.615 285.679Z" fill="#E7E7E7" fill-rule="evenodd"/><path d="M245.457 246.262 1053.04 246.262 1053.04 285.679 245.457 285.679Z" fill="#E7E7E7" fill-rule="evenodd"/><path d="M11.2968 285.679 50.615 285.679 50.615 325.095 11.2968 325.095Z" fill="#E7E7E7" fill-rule="evenodd"/><path d="M50.615 285.679 245.457 285.679 245.457 325.095 50.615 325.095Z" fill="#E7E7E7" fill-rule="evenodd"/><path d="M245.457 285.679 1053.04 285.679 1053.04 325.095 245.457 325.095Z" fill="#E7E7E7" fill-rule="evenodd"/><path d="M11.2968 325.095 50.615 325.095 50.615 364.511 11.2968 364.511Z" fill="#E7E7E7" fill-rule="evenodd"/><path d="M50.615 325.095 245.457 325.095 245.457 364.511 50.615 364.511Z" fill="#E7E7E7" fill-rule="evenodd"/><path d="M245.457 325.095 1053.04 325.095 1053.04 364.511 245.457 364.511Z" fill="#E7E7E7" fill-rule="evenodd"/><path d="M11.2968 364.511 50.615 364.511 50.615 403.927 11.2968 403.927Z" fill="#E7E7E7" fill-rule="evenodd"/><path d="M50.615 364.511 245.457 364.511 245.457 403.927 50.615 403.927Z" fill="#E7E7E7" fill-rule="evenodd"/><path d="M245.457 364.511 1053.04 364.511 1053.04 403.927 245.457 403.927Z" fill="#E7E7E7" fill-rule="evenodd"/><path d="M11.2968 403.927 50.615 403.927 50.615 443.344 11.2968 443.344Z" fill="#E7E7E7" fill-rule="evenodd"/><path d="M50.615 403.927 245.457 403.927 245.457 443.344 50.615 443.344Z" fill="#E7E7E7" fill-rule="evenodd"/><path d="M245.457 403.927 1053.04 403.927 1053.04 443.344 245.457 443.344Z" fill="#E7E7E7" fill-rule="evenodd"/><path d="M11.2968 443.344 50.615 443.344 50.615 486.327 11.2968 486.327Z" fill="#E7E7E7" fill-rule="evenodd"/><path d="M50.615 443.344 245.457 443.344 245.457 486.327 50.615 486.327Z" fill="#E7E7E7" fill-rule="evenodd"/><path d="M245.457 443.344 1053.04 443.344 1053.04 486.327 245.457 486.327Z" fill="#E7E7E7" fill-rule="evenodd"/><path d="M11.2968 486.327 50.615 486.327 50.615 525.743 11.2968 525.743Z" fill="#E7E7E7" fill-rule="evenodd"/><path d="M50.615 486.327 245.457 486.327 245.457 525.743 50.615 525.743Z" fill="#E7E7E7" fill-rule="evenodd"/><path d="M245.457 486.327 1053.04 486.327 1053.04 525.743 245.457 525.743Z" fill="#E7E7E7" fill-rule="evenodd"/><path d="M11.2968 525.743 50.615 525.743 50.615 565.16 11.2968 565.16Z" fill="#E7E7E7" fill-rule="evenodd"/><path d="M50.615 525.743 245.457 525.743 245.457 565.16 50.615 565.16Z" fill="#E7E7E7" fill-rule="evenodd"/><path d="M245.457 525.743 1053.04 525.743 1053.04 565.16 245.457 565.16Z" fill="#E7E7E7" fill-rule="evenodd"/><path d="M11.2968 565.16 50.615 565.16 50.615 606.686 11.2968 606.686Z" fill="#E7E7E7" fill-rule="evenodd"/><path d="M50.615 565.16 245.457 565.16 245.457 606.686 50.615 606.686Z" fill="#E7E7E7" fill-rule="evenodd"/><path d="M245.457 565.16 1053.04 565.16 1053.04 606.686 245.457 606.686Z" fill="#E7E7E7" fill-rule="evenodd"/><path d="M11.2968 606.686 50.615 606.686 50.615 652.226 11.2968 652.226Z" fill="#E7E7E7" fill-rule="evenodd"/><path d="M50.615 606.686 245.457 606.686 245.457 652.226 50.615 652.226Z" fill="#E7E7E7" fill-rule="evenodd"/><path d="M245.457 606.686 1053.04 606.686 1053.04 652.226 245.457 652.226Z" fill="#E7E7E7" fill-rule="evenodd"/><path d="M11.2968 652.226 50.615 652.226 50.615 698.829 11.2968 698.829Z" fill="#E7E7E7" fill-rule="evenodd"/><path d="M50.615 652.226 245.457 652.226 245.457 698.829 50.615 698.829Z" fill="#E7E7E7" fill-rule="evenodd"/><path d="M245.457 652.226 1053.04 652.226 1053.04 698.829 245.457 698.829Z" fill="#E7E7E7" fill-rule="evenodd"/><path d="M11.2968 698.829 50.615 698.829 50.615 743.177 11.2968 743.177Z" fill="#E7E7E7" fill-rule="evenodd"/><path d="M50.615 698.829 245.457 698.829 245.457 743.177 50.615 743.177Z" fill="#E7E7E7" fill-rule="evenodd"/><path d="M245.457 698.829 1053.04 698.829 1053.04 743.177 245.457 743.177Z" fill="#E7E7E7" fill-rule="evenodd"/><path d="M50.615 9.09817 50.615 743.844" stroke="#000000" stroke-width="1.33291" stroke-linejoin="round" stroke-miterlimit="10" fill="none" fill-rule="evenodd"/><path d="M245.457 9.09817 245.457 743.844" stroke="#000000" stroke-width="1.33291" stroke-linejoin="round" stroke-miterlimit="10" fill="none" fill-rule="evenodd"/><path d="M10.6304 49.1812 1053.7 49.1812" stroke="#000000" stroke-width="1.33291" stroke-linejoin="round" stroke-miterlimit="10" fill="none" fill-rule="evenodd"/><path d="M10.6304 88.5975 1053.7 88.5975" stroke="#000000" stroke-width="1.33291" stroke-linejoin="round" stroke-miterlimit="10" fill="none" fill-rule="evenodd"/><path d="M10.6304 128.014 1053.7 128.014" stroke="#000000" stroke-width="1.33291" stroke-linejoin="round" stroke-miterlimit="10" fill="none" fill-rule="evenodd"/><path d="M10.6304 167.43 1053.7 167.43" stroke="#000000" stroke-width="1.33291" stroke-linejoin="round" stroke-miterlimit="10" fill="none" fill-rule="evenodd"/><path d="M10.6304 206.846 1053.7 206.846" stroke="#000000" stroke-width="1.33291" stroke-linejoin="round" stroke-miterlimit="10" fill="none" fill-rule="evenodd"/><path d="M10.6304 246.262 1053.7 246.262" stroke="#000000" stroke-width="1.33291" stroke-linejoin="round" stroke-miterlimit="10" fill="none" fill-rule="evenodd"/><path d="M10.6304 285.679 1053.7 285.679" stroke="#000000" stroke-width="1.33291" stroke-linejoin="round" stroke-miterlimit="10" fill="none" fill-rule="evenodd"/><path d="M10.6304 325.095 1053.7 325.095" stroke="#000000" stroke-width="1.33291" stroke-linejoin="round" stroke-miterlimit="10" fill="none" fill-rule="evenodd"/><path d="M10.6304 364.511 1053.7 364.511" stroke="#000000" stroke-width="1.33291" stroke-linejoin="round" stroke-miterlimit="10" fill="none" fill-rule="evenodd"/><path d="M10.6304 403.927 1053.7 403.927" stroke="#000000" stroke-width="1.33291" stroke-linejoin="round" stroke-miterlimit="10" fill="none" fill-rule="evenodd"/><path d="M10.6304 443.344 1053.7 443.344" stroke="#000000" stroke-width="1.33291" stroke-linejoin="round" stroke-miterlimit="10" fill="none" fill-rule="evenodd"/><path d="M10.6304 486.327 1053.7 486.327" stroke="#000000" stroke-width="1.33291" stroke-linejoin="round" stroke-miterlimit="10" fill="none" fill-rule="evenodd"/><path d="M10.6304 525.743 1053.7 525.743" stroke="#000000" stroke-width="1.33291" stroke-linejoin="round" stroke-miterlimit="10" fill="none" fill-rule="evenodd"/><path d="M10.6304 565.16 1053.7 565.16" stroke="#000000" stroke-width="1.33291" stroke-linejoin="round" stroke-miterlimit="10" fill="none" fill-rule="evenodd"/><path d="M10.6304 606.686 1053.7 606.686" stroke="#000000" stroke-width="1.33291" stroke-linejoin="round" stroke-miterlimit="10" fill="none" fill-rule="evenodd"/><path d="M10.6304 652.226 1053.7 652.226" stroke="#000000" stroke-width="1.33291" stroke-linejoin="round" stroke-miterlimit="10" fill="none" fill-rule="evenodd"/><path d="M10.6304 698.829 1053.7 698.829" stroke="#000000" stroke-width="1.33291" stroke-linejoin="round" stroke-miterlimit="10" fill="none" fill-rule="evenodd"/><path d="M11.2968 9.09817 11.2968 743.844" stroke="#000000" stroke-width="1.33291" stroke-linejoin="round" stroke-miterlimit="10" fill="none" fill-rule="evenodd"/><path d="M1053.04 9.09817 1053.04 743.844" stroke="#000000" stroke-width="1.33291" stroke-linejoin="round" stroke-miterlimit="10" fill="none" fill-rule="evenodd"/><path d="M10.6304 9.76499 1053.7 9.76499" stroke="#000000" stroke-width="1.33291" stroke-linejoin="round" stroke-miterlimit="10" fill="none" fill-rule="evenodd"/><path d="M10.6304 743.177 1053.7 743.177" stroke="#000000" stroke-width="1.33291" stroke-linejoin="round" stroke-miterlimit="10" fill="none" fill-rule="evenodd"/><g><text fill="#1B1C1D" font-family="Calibri,Calibri_MSFontService,sans-serif" font-weight="700" font-size="22.6717" transform="matrix(1 0 0 1.00054 252.1 37)">Description</text></g><g><text fill="#1B1C1D" font-family="Calibri,Calibri_MSFontService,sans-serif" font-weight="700" font-size="22.6717" transform="matrix(1 0 0 1.00054 57.2581 37)">Field Name</text></g><g><text fill="#1B1C1D" font-family="Calibri,Calibri_MSFontService,sans-serif" font-weight="700" font-size="22.6717" transform="matrix(1 0 0 1.00054 17.9399 37)">#</text></g><g><text fill="#1B1C1D" font-family="Calibri,Calibri_MSFontService,sans-serif" font-weight="400" font-size="22.6717" transform="matrix(1 0 0 1.00054 252.1 76)">PubMed Unique Identifier for the article.</text></g><g><text fill="#1B1C1D" font-family="Calibri,Calibri_MSFontService,sans-serif" font-weight="700" font-size="22.6717" transform="matrix(1 0 0 1.00054 57.2581 76)">PMID</text></g><g><text fill="#1B1C1D" font-family="Calibri,Calibri_MSFontService,sans-serif" font-weight="700" font-size="22.6717" transform="matrix(1 0 0 1.00054 17.9399 76)">1</text></g><g><text fill="#1B1C1D" font-family="Calibri,Calibri_MSFontService,sans-serif" font-weight="400" font-size="22.6717" transform="matrix(1 0 0 1.00054 252.1 116)">The full title of the article.</text></g><g><text fill="#1B1C1D" font-family="Calibri,Calibri_MSFontService,sans-serif" font-weight="700" font-size="22.6717" transform="matrix(1 0 0 1.00054 57.2581 116)">Title</text></g><g><text fill="#1B1C1D" font-family="Calibri,Calibri_MSFontService,sans-serif" font-weight="700" font-size="22.6717" transform="matrix(1 0 0 1.00054 17.9399 116)">2</text></g><g><text fill="#1B1C1D" font-family="Calibri,Calibri_MSFontService,sans-serif" font-weight="400" font-size="22.6717" transform="matrix(1 0 0 1.00054 252.1 155)">A comma</text></g><text fill="#1B1C1D" font-family="Calibri,Calibri_MSFontService,sans-serif" font-weight="400" font-size="22.6717" transform="matrix(1 0 0 1.00054 339.053 155)">-</text><text fill="#1B1C1D" font-family="Calibri,Calibri_MSFontService,sans-serif" font-weight="400" font-size="22.6717" transform="matrix(1 0 0 1.00054 346.05 155)">separated list of the authors' full names (First Name + Last Name).</text><g><text fill="#1B1C1D" font-family="Calibri,Calibri_MSFontService,sans-serif" font-weight="700" font-size="22.6717" transform="matrix(1 0 0 1.00054 57.2581 155)">Authors</text></g><g><text fill="#1B1C1D" font-family="Calibri,Calibri_MSFontService,sans-serif" font-weight="700" font-size="22.6717" transform="matrix(1 0 0 1.00054 17.9399 155)">3</text></g><g><text fill="#1B1C1D" font-family="Calibri,Calibri_MSFontService,sans-serif" font-weight="400" font-size="22.6717" transform="matrix(1 0 0 1.00054 252.1 195)">The full abstract text of the article.</text></g><g><text fill="#1B1C1D" font-family="Calibri,Calibri_MSFontService,sans-serif" font-weight="700" font-size="22.6717" transform="matrix(1 0 0 1.00054 57.2581 195)">Abstract</text></g><g><text fill="#1B1C1D" font-family="Calibri,Calibri_MSFontService,sans-serif" font-weight="700" font-size="22.6717" transform="matrix(1 0 0 1.00054 17.9399 195)">4</text></g><g><text fill="#1B1C1D" font-family="Calibri,Calibri_MSFontService,sans-serif" font-weight="400" font-size="22.6717" transform="matrix(1 0 0 1.00054 252.1 234)">The Digital Object Identifier.</text></g><g><text fill="#1B1C1D" font-family="Calibri,Calibri_MSFontService,sans-serif" font-weight="700" font-size="22.6717" transform="matrix(1 0 0 1.00054 57.2581 234)">DOI</text></g><g><text fill="#1B1C1D" font-family="Calibri,Calibri_MSFontService,sans-serif" font-weight="700" font-size="22.6717" transform="matrix(1 0 0 1.00054 17.9399 234)">5</text></g><g><text fill="#1B1C1D" font-family="Calibri,Calibri_MSFontService,sans-serif" font-weight="400" font-size="22.6717" transform="matrix(1 0 0 1.00054 252.1 274)">The full title of the journal where the article was published.</text></g><g><text fill="#1B1C1D" font-family="Calibri,Calibri_MSFontService,sans-serif" font-weight="700" font-size="22.6717" transform="matrix(1 0 0 1.00054 57.2581 274)">Journal</text></g><g><text fill="#1B1C1D" font-family="Calibri,Calibri_MSFontService,sans-serif" font-weight="700" font-size="22.6717" transform="matrix(1 0 0 1.00054 17.9399 274)">6</text></g><g><text fill="#1B1C1D" font-family="Calibri,Calibri_MSFontService,sans-serif" font-weight="400" font-size="22.6717" transform="matrix(1 0 0 1.00054 252.1 313)">The full publication date (Year, Month, and/or Day) or MedlineDate.</text></g><g><text fill="#1B1C1D" font-family="Calibri,Calibri_MSFontService,sans-serif" font-weight="700" font-size="22.6717" transform="matrix(1 0 0 1.00054 57.2581 313)">PublicationDate</text></g><g><text fill="#1B1C1D" font-family="Calibri,Calibri_MSFontService,sans-serif" font-weight="700" font-size="22.6717" transform="matrix(1 0 0 1.00054 17.9399 313)">7</text></g><g><text fill="#1B1C1D" font-family="Calibri,Calibri_MSFontService,sans-serif" font-weight="400" font-size="22.6717" transform="matrix(1 0 0 1.00054 252.1 352)">The journal volume number.</text></g><g><text fill="#1B1C1D" font-family="Calibri,Calibri_MSFontService,sans-serif" font-weight="700" font-size="22.6717" transform="matrix(1 0 0 1.00054 57.2581 352)">Volume</text></g><g><text fill="#1B1C1D" font-family="Calibri,Calibri_MSFontService,sans-serif" font-weight="700" font-size="22.6717" transform="matrix(1 0 0 1.00054 17.9399 352)">8</text></g><g><text fill="#1B1C1D" font-family="Calibri,Calibri_MSFontService,sans-serif" font-weight="400" font-size="22.6717" transform="matrix(1 0 0 1.00054 252.1 392)">The journal issue number.</text></g><g><text fill="#1B1C1D" font-family="Calibri,Calibri_MSFontService,sans-serif" font-weight="700" font-size="22.6717" transform="matrix(1 0 0 1.00054 57.2581 392)">Issue</text></g><g><text fill="#1B1C1D" font-family="Calibri,Calibri_MSFontService,sans-serif" font-weight="700" font-size="22.6717" transform="matrix(1 0 0 1.00054 17.9399 392)">9</text></g><g><text fill="#1B1C1D" font-family="Calibri,Calibri_MSFontService,sans-serif" font-weight="400" font-size="22.6717" transform="matrix(1 0 0 1.00054 252.1 431)">The Medline pagination information (page range).</text></g><g><text fill="#1B1C1D" font-family="Calibri,Calibri_MSFontService,sans-serif" font-weight="700" font-size="22.6717" transform="matrix(1 0 0 1.00054 57.2581 431)">Pages</text></g><g><text fill="#1B1C1D" font-family="Calibri,Calibri_MSFontService,sans-serif" font-weight="700" font-size="22.6717" transform="matrix(1 0 0 1.00054 17.9399 431)">10</text></g><g><text fill="#1B1C1D" font-family="Calibri,Calibri_MSFontService,sans-serif" font-weight="400" font-size="22.6717" transform="matrix(1 0 0 1.00054 252.1 472)">A comma</text></g><text fill="#1B1C1D" font-family="Calibri,Calibri_MSFontService,sans-serif" font-weight="400" font-size="22.6717" transform="matrix(1 0 0 1.00054 339.053 472)">-</text><text fill="#1B1C1D" font-family="Calibri,Calibri_MSFontService,sans-serif" font-weight="400" font-size="22.6717" transform="matrix(1 0 0 1.00054 346.05 472)">separated list of the article's publication types</text><text fill="#1B1C1D" font-family="Calibri,Calibri_MSFontService,sans-serif" font-weight="400" font-size="22.6717" transform="matrix(1 0 0 1.00054 774.002 472)">(Review</text><text fill="#1B1C1D" font-family="Calibri,Calibri_MSFontService,sans-serif" font-weight="400" font-size="22.6717" transform="matrix(1 0 0 1.00054 846.686 472)">/</text><text fill="#1B1C1D" font-family="Calibri,Calibri_MSFontService,sans-serif" font-weight="400" font-size="22.6717" transform="matrix(1 0 0 1.00054 855.11 472)">Journal</text><text fill="#1B1C1D" font-family="Calibri,Calibri_MSFontService,sans-serif" font-weight="400" font-size="22.6717" transform="matrix(1 0 0 1.00054 926.921 472)">Article).</text><g><text fill="#1B1C1D" font-family="Calibri,Calibri_MSFontService,sans-serif" font-weight="700" font-size="22.6717" transform="matrix(1 0 0 1.00054 57.2581 472)">PublicationType</text></g><g><text fill="#1B1C1D" font-family="Calibri,Calibri_MSFontService,sans-serif" font-weight="700" font-size="22.6717" transform="matrix(1 0 0 1.00054 17.9399 472)">11</text></g><g><text fill="#1B1C1D" font-family="Calibri,Calibri_MSFontService,sans-serif" font-weight="400" font-size="22.6717" transform="matrix(1 0 0 1.00054 252.1 514)">A comma</text></g><text fill="#1B1C1D" font-family="Calibri,Calibri_MSFontService,sans-serif" font-weight="400" font-size="22.6717" transform="matrix(1 0 0 1.00054 339.053 514)">-</text><text fill="#1B1C1D" font-family="Calibri,Calibri_MSFontService,sans-serif" font-weight="400" font-size="22.6717" transform="matrix(1 0 0 1.00054 346.05 514)">separated list of author</text><text fill="#1B1C1D" font-family="Calibri,Calibri_MSFontService,sans-serif" font-weight="400" font-size="22.6717" transform="matrix(1 0 0 1.00054 560.47 514)">-</text><text fill="#1B1C1D" font-family="Calibri,Calibri_MSFontService,sans-serif" font-weight="400" font-size="22.6717" transform="matrix(1 0 0 1.00054 567.467 514)">supplied keywords.</text><g><text fill="#1B1C1D" font-family="Calibri,Calibri_MSFontService,sans-serif" font-weight="700" font-size="22.6717" transform="matrix(1 0 0 1.00054 57.2581 514)">Keywords</text></g><g><text fill="#1B1C1D" font-family="Calibri,Calibri_MSFontService,sans-serif" font-weight="700" font-size="22.6717" transform="matrix(1 0 0 1.00054 17.9399 514)">12</text></g><g><text fill="#1B1C1D" font-family="Calibri,Calibri_MSFontService,sans-serif" font-weight="400" font-size="22.6717" transform="matrix(1 0 0 1.00054 252.1 553)">The PubMed Central Identifier.</text></g><g><text fill="#1B1C1D" font-family="Calibri,Calibri_MSFontService,sans-serif" font-weight="700" font-size="22.6717" transform="matrix(1 0 0 1.00054 57.2581 553)">PMC_ID</text></g><g><text fill="#1B1C1D" font-family="Calibri,Calibri_MSFontService,sans-serif" font-weight="700" font-size="22.6717" transform="matrix(1 0 0 1.00054 17.9399 553)">13</text></g><g><text fill="#1B1C1D" font-family="Calibri,Calibri_MSFontService,sans-serif" font-weight="400" font-size="22.6717" transform="matrix(1 0 0 1.00054 252.1 594)">A comma</text></g><text fill="#1B1C1D" font-family="Calibri,Calibri_MSFontService,sans-serif" font-weight="400" font-size="22.6717" transform="matrix(1 0 0 1.00054 339.053 594)">-</text><text fill="#1B1C1D" font-family="Calibri,Calibri_MSFontService,sans-serif" font-weight="400" font-size="22.6717" transform="matrix(1 0 0 1.00054 346.05 594)">separated list of major MeSH (Medical Subject Headings) Descriptors.</text><g><text fill="#1B1C1D" font-family="Calibri,Calibri_MSFontService,sans-serif" font-weight="700" font-size="22.6717" transform="matrix(1 0 0 1.00054 57.2581 594)">MeSH_Terms</text></g><g><text fill="#1B1C1D" font-family="Calibri,Calibri_MSFontService,sans-serif" font-weight="700" font-size="22.6717" transform="matrix(1 0 0 1.00054 17.9399 594)">14</text></g><g><text fill="#1B1C1D" font-family="Calibri,Calibri_MSFontService,sans-serif" font-weight="400" font-size="22.6717" transform="matrix(1 0 0 1.00054 252.1 637)">A comma</text></g><text fill="#1B1C1D" font-family="Calibri,Calibri_MSFontService,sans-serif" font-weight="400" font-size="22.6717" transform="matrix(1 0 0 1.00054 339.053 637)">-</text><text fill="#1B1C1D" font-family="Calibri,Calibri_MSFontService,sans-serif" font-weight="400" font-size="22.6717" transform="matrix(1 0 0 1.00054 346.05 637)">separated list of Grant IDs associated with the funding.</text><g><text fill="#1B1C1D" font-family="Calibri,Calibri_MSFontService,sans-serif" font-weight="700" font-size="22.6717" transform="matrix(1 0 0 1.00054 57.2581 637)">GrantInfo</text></g><g><text fill="#1B1C1D" font-family="Calibri,Calibri_MSFontService,sans-serif" font-weight="700" font-size="22.6717" transform="matrix(1 0 0 1.00054 17.9399 637)">15</text></g><g><text fill="#1B1C1D" font-family="Calibri,Calibri_MSFontService,sans-serif" font-weight="400" font-size="22.6717" transform="matrix(1 0 0 1.00054 252.1 683)">The language of the article (e.g.,</text></g><text fill="#1B1C1D" font-family="Calibri,Calibri_MSFontService,sans-serif" font-weight="400" font-size="22.6717" transform="matrix(1 0 0 1.00054 553.732 683)">eng</text><text fill="#1B1C1D" font-family="Calibri,Calibri_MSFontService,sans-serif" font-weight="400" font-size="22.6717" transform="matrix(1 0 0 1.00054 587.554 683)">).</text><g><text fill="#1B1C1D" font-family="Calibri,Calibri_MSFontService,sans-serif" font-weight="700" font-size="22.6717" transform="matrix(1 0 0 1.00054 57.2581 683)">Language</text></g><g><text fill="#1B1C1D" font-family="Calibri,Calibri_MSFontService,sans-serif" font-weight="700" font-size="22.6717" transform="matrix(1 0 0 1.00054 17.9399 683)">16</text></g><g><text fill="#1B1C1D" font-family="Calibri,Calibri_MSFontService,sans-serif" font-weight="400" font-size="22.6717" transform="matrix(1 0 0 1.00054 252.1 729)">The International Standard Serial Number for the journal.</text></g><g><text fill="#1B1C1D" font-family="Calibri,Calibri_MSFontService,sans-serif" font-weight="700" font-size="22.6717" transform="matrix(1 0 0 1.00054 57.2581 729)">ISSN</text></g><g><text fill="#1B1C1D" font-family="Calibri,Calibri_MSFontService,sans-serif" font-weight="700" font-size="22.6717" transform="matrix(1 0 0 1.00054 17.9399 729)">17</text></g></g></svg>